<mxfile><diagram id="R2lEEEUBdFMjLlhIrx00" name="Page-1"><mxGraphModel dx="1717" dy="1152" grid="1" gridSize="10" guides="1" tooltips="1" connect="1" arrows="1" fold="1" page="1" pageScale="1" pageWidth="850" pageHeight="1100" math="0" shadow="0" extFonts="Permanent Marker^https://fonts.googleapis.com/css?family=Permanent+Marker"><root><mxCell id="0"/><mxCell id="1" parent="0"/><mxCell id="3N9pXRzrCpbUJ6rccx5e-1" value="Organization" style="text;strokeColor=none;fillColor=none;html=1;fontSize=18;fontStyle=1;verticalAlign=middle;align=center;" parent="1" vertex="1"><mxGeometry x="120" y="160" width="130" height="40" as="geometry"/></mxCell><mxCell id="3N9pXRzrCpbUJ6rccx5e-167" value="Name" style="whiteSpace=wrap;html=1;align=center;strokeColor=default;fontSize=18;fillColor=none;" parent="1" vertex="1"><mxGeometry x="290" y="200" width="100" height="40" as="geometry"/></mxCell><mxCell id="3N9pXRzrCpbUJ6rccx5e-191" value="&lt;b&gt;Organization_ID&lt;/b&gt;" style="whiteSpace=wrap;html=1;align=center;strokeColor=default;fontSize=18;fillColor=none;" parent="1" vertex="1"><mxGeometry x="120" y="200" width="170" height="40" as="geometry"/></mxCell><mxCell id="3N9pXRzrCpbUJ6rccx5e-192" value="&lt;b&gt;&lt;u&gt;Branch_ID&lt;/u&gt;&lt;/b&gt;" style="whiteSpace=wrap;html=1;align=center;strokeColor=default;fontSize=18;fillColor=none;" parent="1" vertex="1"><mxGeometry x="640" y="200" width="110" height="40" as="geometry"/></mxCell><mxCell id="3N9pXRzrCpbUJ6rccx5e-193" value="&lt;b&gt;&lt;u&gt;Publisher_ID&lt;/u&gt;&lt;/b&gt;" style="whiteSpace=wrap;html=1;align=center;strokeColor=default;fontSize=18;fillColor=none;" parent="1" vertex="1"><mxGeometry x="510" y="200" width="130" height="40" as="geometry"/></mxCell><mxCell id="w69w0hlKESF7Hr4Dqop_-2" value="Address" style="whiteSpace=wrap;html=1;align=center;strokeColor=default;fontSize=18;fillColor=none;" parent="1" vertex="1"><mxGeometry x="390" y="200" width="120" height="40" as="geometry"/></mxCell></root></mxGraphModel></diagram></mxfile>